<svg width="305" height="66" viewBox="0 0 305 66" fill="none" xmlns="http://www.w3.org/2000/svg">
<g filter="url(#filter0_d_40:67)">
<path d="M39.888 48.944C39.888 49.2427 39.7813 49.5627 39.568 49.904C39.3547 50.2453 39.056 50.416 38.672 50.416C38.4587 50.416 38.224 50.352 37.968 50.224C36.432 49.4987 34.64 48.9013 32.592 48.432C30.544 48.0053 28.432 47.6213 26.256 47.28C24.1227 46.9387 22.032 46.5547 19.984 46.128C17.936 45.744 16.144 45.232 14.608 44.592C14.864 45.1467 15.12 45.5947 15.376 45.936C15.632 46.2773 15.8453 46.576 16.016 46.832C16.2293 47.088 16.4 47.3227 16.528 47.536C16.656 47.792 16.72 48.112 16.72 48.496C16.72 48.8373 16.592 49.0933 16.336 49.264C16.08 49.4347 15.824 49.52 15.568 49.52C15.056 49.52 14.5013 49.2 13.904 48.56C13.3493 47.92 12.7733 47.1093 12.176 46.128C11.5787 45.1467 10.9813 44.0587 10.384 42.864C9.82933 41.6267 9.31733 40.432 8.848 39.28C8.37867 38.128 7.97333 37.0827 7.632 36.144C7.29067 35.1627 7.056 34.416 6.928 33.904L4.112 22.64C4.112 22.512 4.13333 22.3413 4.176 22.128C4.26133 21.9147 4.432 21.7013 4.688 21.488C4.51733 21.1467 4.432 20.784 4.432 20.4C4.432 19.2053 5.11467 18.1173 6.48 17.136C7.84533 16.112 9.488 15.2587 11.408 14.576C13.3707 13.8507 15.4187 13.296 17.552 12.912C19.6853 12.528 21.4987 12.336 22.992 12.336C23.4187 12.336 24.0587 12.3787 24.912 12.464C25.7653 12.5067 26.5973 12.656 27.408 12.912C28.2613 13.168 28.9867 13.5733 29.584 14.128C30.224 14.64 30.544 15.3653 30.544 16.304C30.544 17.2 30.0747 18.224 29.136 19.376C28.24 20.528 27.1093 21.744 25.744 23.024C24.3787 24.304 22.9067 25.6267 21.328 26.992C19.7493 28.3147 18.2773 29.6587 16.912 31.024C15.5467 32.3467 14.3947 33.648 13.456 34.928C12.56 36.1653 12.112 37.3173 12.112 38.384C12.112 39.1947 12.4533 39.92 13.136 40.56C13.8613 41.1573 14.7573 41.6907 15.824 42.16C16.8907 42.6293 18.0427 43.0347 19.28 43.376C20.56 43.7173 21.7547 43.9947 22.864 44.208C24.016 44.4213 24.9973 44.592 25.808 44.72C26.6613 44.8053 27.1733 44.848 27.344 44.848C27.8987 44.848 28.8587 44.912 30.224 45.04C31.5893 45.168 32.976 45.4027 34.384 45.744C35.8347 46.0427 37.1147 46.448 38.224 46.96C39.3333 47.472 39.888 48.1333 39.888 48.944ZM27.536 16.368C27.536 16.0693 27.3867 15.8133 27.088 15.6C26.7893 15.344 26.384 15.152 25.872 15.024C25.4027 14.8533 24.8693 14.7467 24.272 14.704C23.7173 14.6187 23.1627 14.576 22.608 14.576C21.7547 14.576 20.7307 14.704 19.536 14.96C18.3413 15.216 17.1253 15.536 15.888 15.92C14.6933 16.304 13.584 16.688 12.56 17.072C11.536 17.456 10.7893 17.776 10.32 18.032C9.424 18.544 8.54933 19.12 7.696 19.76C6.84267 20.3573 6.416 20.9547 6.416 21.552C6.416 21.6373 6.48 21.7227 6.608 21.808C6.736 21.8933 6.8 22.0427 6.8 22.256C6.8 22.512 6.928 23.1733 7.184 24.24C7.44 25.264 7.73867 26.4373 8.08 27.76C8.42133 29.04 8.784 30.32 9.168 31.6C9.59467 32.88 9.97867 33.904 10.32 34.672C12.0693 32.1973 13.9467 30.0427 15.952 28.208C18 26.3307 19.8773 24.688 21.584 23.28C23.2907 21.8293 24.6987 20.5707 25.808 19.504C26.96 18.3947 27.536 17.3493 27.536 16.368ZM50.686 16.048C50.1313 18.992 49.6193 21.8293 49.15 24.56C48.9367 25.712 48.7233 26.928 48.51 28.208C48.2967 29.4453 48.0833 30.6827 47.87 31.92C47.6993 33.1147 47.5287 34.2667 47.358 35.376C47.23 36.4427 47.1233 37.424 47.038 38.32C46.8673 39.6853 46.7393 41.2427 46.654 42.992C46.5687 44.7413 46.4833 46.4053 46.398 47.984C46.3127 49.8187 46.27 51.6747 46.27 53.552C46.27 53.936 46.2273 54.3627 46.142 54.832C46.0567 55.3013 46.014 55.7707 46.014 56.24C46.014 56.6667 45.9073 57.0293 45.694 57.328C45.5233 57.6267 45.246 57.776 44.862 57.776C44.5207 57.776 44.2433 57.4987 44.03 56.944C43.8593 56.432 43.71 55.8133 43.582 55.088C43.454 54.4053 43.3687 53.7013 43.326 52.976C43.2833 52.2933 43.262 51.8027 43.262 51.504C43.262 51.1627 43.262 50.736 43.262 50.224C43.262 49.7547 43.2833 49.0293 43.326 48.048C43.4113 47.1093 43.518 45.872 43.646 44.336C43.774 42.7573 43.966 40.7093 44.222 38.192C44.222 38.1493 43.9233 37.936 43.326 37.552C42.7713 37.168 42.0673 36.6987 41.214 36.144C40.4033 35.5467 39.55 34.9067 38.654 34.224C37.8007 33.5413 37.0753 32.88 36.478 32.24C36.3927 32.1547 36.2647 31.9627 36.094 31.664C35.9233 31.3653 35.838 31.0027 35.838 30.576C35.838 30.3627 35.9447 30.1493 36.158 29.936C36.3713 29.68 36.606 29.552 36.862 29.552C37.0327 29.552 37.2033 29.6373 37.374 29.808C38.3553 30.6613 39.486 31.6213 40.766 32.688C42.046 33.712 43.3047 34.6507 44.542 35.504C44.6273 34.736 44.798 33.5627 45.054 31.984C45.3527 30.4053 45.6513 28.72 45.95 26.928C46.2487 25.0933 46.526 23.3227 46.782 21.616C47.0807 19.9093 47.294 18.544 47.422 17.52C47.422 17.3493 47.4647 17.072 47.55 16.688C47.6353 16.304 47.7633 15.92 47.934 15.536C48.1047 15.152 48.2967 14.832 48.51 14.576C48.7233 14.2773 48.958 14.128 49.214 14.128C49.342 14.128 49.6193 14.256 50.046 14.512C50.4727 14.7253 50.686 15.2373 50.686 16.048ZM85.7725 32.688C85.7725 33.456 85.4098 34.416 84.6845 35.568C84.0018 36.6773 83.0632 37.7653 81.8685 38.832C80.6738 39.8987 79.2872 40.816 77.7085 41.584C76.1298 42.3093 74.4872 42.672 72.7805 42.672C72.0125 42.672 71.2018 42.544 70.3485 42.288C69.4952 42.032 68.6632 41.6693 67.8525 41.2C67.0418 40.688 66.3165 40.0907 65.6765 39.408C65.0365 38.6827 64.5672 37.872 64.2685 36.976C64.0125 37.232 63.6925 37.6587 63.3085 38.256C62.9672 38.8533 62.5832 39.472 62.1565 40.112C61.7298 40.7093 61.2605 41.2427 60.7485 41.712C60.2365 42.1387 59.7032 42.352 59.1485 42.352C58.5938 42.352 58.1245 42.0747 57.7405 41.52C57.3992 40.9227 57.1218 40.2827 56.9085 39.6C56.6952 38.8747 56.5458 38.192 56.4605 37.552C56.3752 36.912 56.3325 36.5493 56.3325 36.464C56.3325 35.952 56.4818 34.992 56.7805 33.584C57.0792 32.1333 57.5272 30.64 58.1245 29.104C58.7218 27.568 59.4685 26.2027 60.3645 25.008C61.3032 23.8133 62.3912 23.216 63.6285 23.216C64.0978 23.216 64.3965 23.4293 64.5245 23.856C64.6952 24.24 64.7805 24.624 64.7805 25.008V26.928C64.9938 27.0987 65.2072 27.2267 65.4205 27.312C65.6765 27.3547 65.8898 27.44 66.0605 27.568C66.2738 27.6533 66.4232 27.8027 66.5085 28.016C66.6365 28.2293 66.7005 28.5707 66.7005 29.04C66.7005 29.3387 66.6792 29.616 66.6365 29.872C66.5938 30.0853 66.5725 30.2987 66.5725 30.512C66.5725 31.6213 66.6578 32.7093 66.8285 33.776C66.9992 34.8427 67.3405 35.8027 67.8525 36.656C68.3645 37.4667 69.0685 38.1493 69.9645 38.704C70.8605 39.216 72.0552 39.472 73.5485 39.472C75.4258 39.472 77.0045 39.088 78.2845 38.32C79.6072 37.5093 80.6952 36.6347 81.5485 35.696C82.4445 34.7147 83.1485 33.84 83.6605 33.072C84.1725 32.2613 84.5992 31.856 84.9405 31.856C85.4952 31.856 85.7725 32.1333 85.7725 32.688ZM63.3085 29.872C63.3085 29.7013 63.2658 29.552 63.1805 29.424C63.0952 29.2533 63.0525 29.104 63.0525 28.976C63.0525 28.8053 63.0952 28.656 63.1805 28.528C63.2658 28.4 63.3085 28.2293 63.3085 28.016C63.3085 27.888 63.2658 27.8027 63.1805 27.76C63.0952 27.6747 63.0525 27.5893 63.0525 27.504C62.6685 27.5893 62.2632 27.952 61.8365 28.592C61.4525 29.232 61.0685 29.9787 60.6845 30.832C60.3432 31.6853 60.0658 32.56 59.8525 33.456C59.6392 34.3093 59.5325 35.0133 59.5325 35.568C59.5325 35.8667 59.6178 36.3573 59.7885 37.04C59.9592 37.7227 60.1512 38.1707 60.3645 38.384C61.0898 36.8907 61.7512 35.44 62.3485 34.032C62.9885 32.624 63.3085 31.2373 63.3085 29.872ZM105.76 38.128C105.76 38.384 105.675 38.64 105.504 38.896C105.333 39.152 105.12 39.3867 104.864 39.6C104.651 39.8133 104.395 40.0053 104.096 40.176C103.84 40.304 103.605 40.368 103.392 40.368C102.667 40.368 101.728 40.2187 100.576 39.92C99.4667 39.5787 98.5707 39.0667 97.888 38.384C97.1627 37.6587 96.5227 36.8053 95.968 35.824C95.4133 34.8 94.7947 33.3067 94.112 31.344C93.6427 33.2213 93.088 35.0773 92.448 36.912C91.8507 38.7467 90.8693 40.432 89.504 41.968C89.4187 42.0533 89.2907 42.096 89.12 42.096C88.8213 42.096 88.5013 41.9467 88.16 41.648C87.8187 41.3493 87.648 41.0507 87.648 40.752C87.648 40.4533 87.6053 39.7707 87.52 38.704C87.4773 37.5947 87.4133 36.3787 87.328 35.056C87.2427 33.6907 87.1573 32.3253 87.072 30.96C87.0293 29.552 87.008 28.4 87.008 27.504C87.008 27.0773 87.0293 26.5227 87.072 25.84C87.1147 25.1147 87.2427 24.496 87.456 23.984C87.4987 23.8987 87.648 23.728 87.904 23.472C88.2027 23.216 88.5227 23.088 88.864 23.088C89.1627 23.088 89.3333 23.28 89.376 23.664C89.4187 24.048 89.44 24.4747 89.44 24.944V35.056C89.44 35.2693 89.4613 35.568 89.504 35.952C89.5893 36.336 89.696 36.6133 89.824 36.784C90.2933 35.76 90.72 34.5653 91.104 33.2C91.5307 31.792 91.936 30.4693 92.32 29.232C92.704 27.952 93.088 26.8853 93.472 26.032C93.856 25.136 94.24 24.688 94.624 24.688C95.0507 24.688 95.392 24.7733 95.648 24.944C95.904 25.1147 96.1173 25.456 96.288 25.968C96.5013 27.2053 96.672 28.3147 96.8 29.296C96.928 30.2347 97.0773 31.088 97.248 31.856C97.4613 32.624 97.7387 33.3493 98.08 34.032C98.464 34.672 98.976 35.2693 99.616 35.824C100.213 36.3787 100.875 36.784 101.6 37.04C102.368 37.296 103.029 37.424 103.584 37.424C103.84 37.424 104.117 37.3813 104.416 37.296C104.715 37.168 104.928 37.104 105.056 37.104C105.227 37.104 105.376 37.2533 105.504 37.552C105.675 37.8507 105.76 38.0427 105.76 38.128ZM170.888 48.944C170.888 49.2427 170.781 49.5627 170.568 49.904C170.355 50.2453 170.056 50.416 169.672 50.416C169.459 50.416 169.224 50.352 168.968 50.224C167.432 49.4987 165.64 48.9013 163.592 48.432C161.544 48.0053 159.432 47.6213 157.256 47.28C155.123 46.9387 153.032 46.5547 150.984 46.128C148.936 45.744 147.144 45.232 145.608 44.592C145.864 45.1467 146.12 45.5947 146.376 45.936C146.632 46.2773 146.845 46.576 147.016 46.832C147.229 47.088 147.4 47.3227 147.528 47.536C147.656 47.792 147.72 48.112 147.72 48.496C147.72 48.8373 147.592 49.0933 147.336 49.264C147.08 49.4347 146.824 49.52 146.568 49.52C146.056 49.52 145.501 49.2 144.904 48.56C144.349 47.92 143.773 47.1093 143.176 46.128C142.579 45.1467 141.981 44.0587 141.384 42.864C140.829 41.6267 140.317 40.432 139.848 39.28C139.379 38.128 138.973 37.0827 138.632 36.144C138.291 35.1627 138.056 34.416 137.928 33.904L135.112 22.64C135.112 22.512 135.133 22.3413 135.176 22.128C135.261 21.9147 135.432 21.7013 135.688 21.488C135.517 21.1467 135.432 20.784 135.432 20.4C135.432 19.2053 136.115 18.1173 137.48 17.136C138.845 16.112 140.488 15.2587 142.408 14.576C144.371 13.8507 146.419 13.296 148.552 12.912C150.685 12.528 152.499 12.336 153.992 12.336C154.419 12.336 155.059 12.3787 155.912 12.464C156.765 12.5067 157.597 12.656 158.408 12.912C159.261 13.168 159.987 13.5733 160.584 14.128C161.224 14.64 161.544 15.3653 161.544 16.304C161.544 17.2 161.075 18.224 160.136 19.376C159.24 20.528 158.109 21.744 156.744 23.024C155.379 24.304 153.907 25.6267 152.328 26.992C150.749 28.3147 149.277 29.6587 147.912 31.024C146.547 32.3467 145.395 33.648 144.456 34.928C143.56 36.1653 143.112 37.3173 143.112 38.384C143.112 39.1947 143.453 39.92 144.136 40.56C144.861 41.1573 145.757 41.6907 146.824 42.16C147.891 42.6293 149.043 43.0347 150.28 43.376C151.56 43.7173 152.755 43.9947 153.864 44.208C155.016 44.4213 155.997 44.592 156.808 44.72C157.661 44.8053 158.173 44.848 158.344 44.848C158.899 44.848 159.859 44.912 161.224 45.04C162.589 45.168 163.976 45.4027 165.384 45.744C166.835 46.0427 168.115 46.448 169.224 46.96C170.333 47.472 170.888 48.1333 170.888 48.944ZM158.536 16.368C158.536 16.0693 158.387 15.8133 158.088 15.6C157.789 15.344 157.384 15.152 156.872 15.024C156.403 14.8533 155.869 14.7467 155.272 14.704C154.717 14.6187 154.163 14.576 153.608 14.576C152.755 14.576 151.731 14.704 150.536 14.96C149.341 15.216 148.125 15.536 146.888 15.92C145.693 16.304 144.584 16.688 143.56 17.072C142.536 17.456 141.789 17.776 141.32 18.032C140.424 18.544 139.549 19.12 138.696 19.76C137.843 20.3573 137.416 20.9547 137.416 21.552C137.416 21.6373 137.48 21.7227 137.608 21.808C137.736 21.8933 137.8 22.0427 137.8 22.256C137.8 22.512 137.928 23.1733 138.184 24.24C138.44 25.264 138.739 26.4373 139.08 27.76C139.421 29.04 139.784 30.32 140.168 31.6C140.595 32.88 140.979 33.904 141.32 34.672C143.069 32.1973 144.947 30.0427 146.952 28.208C149 26.3307 150.877 24.688 152.584 23.28C154.291 21.8293 155.699 20.5707 156.808 19.504C157.96 18.3947 158.536 17.3493 158.536 16.368ZM186.102 39.28C186.145 39.3653 186.166 39.4933 186.166 39.664C186.166 39.92 185.974 40.304 185.59 40.816C185.462 40.9867 185.185 41.264 184.758 41.648C184.331 42.032 183.755 42.416 183.03 42.8C182.305 43.184 181.409 43.5253 180.342 43.824C179.318 44.1227 178.102 44.272 176.694 44.272C175.713 44.272 174.753 44.0587 173.814 43.632C172.875 43.1627 172.043 42.5013 171.318 41.648C170.593 40.752 169.995 39.664 169.526 38.384C169.057 37.0613 168.822 35.5253 168.822 33.776C168.822 32.112 169.035 30.5547 169.462 29.104C169.889 27.6533 170.422 26.3733 171.062 25.264C171.745 24.1547 172.491 23.28 173.302 22.64C174.113 22 174.902 21.68 175.67 21.68C176.353 21.68 177.035 21.8293 177.718 22.128C178.443 22.384 179.083 22.7253 179.638 23.152C180.235 23.5787 180.705 24.0693 181.046 24.624C181.387 25.136 181.558 25.6693 181.558 26.224C181.558 26.864 181.259 27.5253 180.662 28.208C180.107 28.8907 179.425 29.5307 178.614 30.128C177.803 30.6827 176.993 31.152 176.182 31.536C175.371 31.8773 174.731 32.048 174.262 32.048C174.006 32.048 173.771 31.9413 173.558 31.728C173.387 31.472 173.302 31.1733 173.302 30.832C173.302 30.2347 173.558 29.7653 174.07 29.424C174.625 29.0827 175.222 28.784 175.862 28.528C176.502 28.2293 177.078 27.888 177.59 27.504C178.145 27.12 178.422 26.5867 178.422 25.904C178.422 25.8187 178.315 25.6053 178.102 25.264C177.889 24.9227 177.313 24.752 176.374 24.752C175.947 24.752 175.457 25.008 174.902 25.52C174.347 25.9893 173.814 26.6507 173.302 27.504C172.79 28.3147 172.363 29.296 172.022 30.448C171.681 31.5573 171.51 32.7733 171.51 34.096C171.51 35.2053 171.702 36.208 172.086 37.104C172.513 38 173.046 38.768 173.686 39.408C174.326 40.0053 175.073 40.4747 175.926 40.816C176.779 41.1573 177.654 41.328 178.55 41.328C179.19 41.328 179.873 41.2 180.598 40.944C181.366 40.6453 182.07 40.3467 182.71 40.048C183.393 39.7067 183.969 39.408 184.438 39.152C184.95 38.8533 185.27 38.704 185.398 38.704C185.526 38.704 185.654 38.768 185.782 38.896C185.953 39.024 186.059 39.152 186.102 39.28ZM203.999 16.048C203.444 18.992 202.932 21.8293 202.463 24.56C202.249 25.712 202.036 26.928 201.823 28.208C201.609 29.4453 201.396 30.6827 201.183 31.92C201.012 33.1147 200.841 34.2667 200.671 35.376C200.543 36.4427 200.436 37.424 200.351 38.32C200.18 39.6853 200.052 41.2427 199.967 42.992C199.881 44.7413 199.796 46.4053 199.711 47.984C199.625 49.8187 199.583 51.6747 199.583 53.552C199.583 53.936 199.54 54.3627 199.455 54.832C199.369 55.3013 199.327 55.7707 199.327 56.24C199.327 56.6667 199.22 57.0293 199.007 57.328C198.836 57.6267 198.559 57.776 198.175 57.776C197.833 57.776 197.556 57.4987 197.343 56.944C197.172 56.432 197.023 55.8133 196.895 55.088C196.767 54.4053 196.681 53.7013 196.639 52.976C196.596 52.2933 196.575 51.8027 196.575 51.504C196.575 51.1627 196.575 50.736 196.575 50.224C196.575 49.7547 196.596 49.0293 196.639 48.048C196.724 47.1093 196.831 45.872 196.959 44.336C197.087 42.7573 197.279 40.7093 197.535 38.192C197.535 38.1493 197.236 37.936 196.639 37.552C196.084 37.168 195.38 36.6987 194.527 36.144C193.716 35.5467 192.863 34.9067 191.967 34.224C191.113 33.5413 190.388 32.88 189.791 32.24C189.705 32.1547 189.577 31.9627 189.407 31.664C189.236 31.3653 189.151 31.0027 189.151 30.576C189.151 30.3627 189.257 30.1493 189.471 29.936C189.684 29.68 189.919 29.552 190.174 29.552C190.345 29.552 190.516 29.6373 190.687 29.808C191.668 30.6613 192.799 31.6213 194.079 32.688C195.359 33.712 196.617 34.6507 197.855 35.504C197.94 34.736 198.111 33.5627 198.367 31.984C198.665 30.4053 198.964 28.72 199.263 26.928C199.561 25.0933 199.839 23.3227 200.095 21.616C200.393 19.9093 200.607 18.544 200.735 17.52C200.735 17.3493 200.777 17.072 200.863 16.688C200.948 16.304 201.076 15.92 201.247 15.536C201.417 15.152 201.609 14.832 201.823 14.576C202.036 14.2773 202.271 14.128 202.527 14.128C202.655 14.128 202.932 14.256 203.359 14.512C203.785 14.7253 203.999 15.2373 203.999 16.048ZM227.885 38.128C227.885 38.384 227.8 38.64 227.629 38.896C227.458 39.152 227.245 39.3867 226.989 39.6C226.776 39.8133 226.52 40.0053 226.221 40.176C225.965 40.304 225.73 40.368 225.517 40.368C224.792 40.368 223.853 40.2187 222.701 39.92C221.592 39.5787 220.696 39.0667 220.013 38.384C219.288 37.6587 218.648 36.8053 218.093 35.824C217.538 34.8 216.92 33.3067 216.237 31.344C215.768 33.2213 215.213 35.0773 214.573 36.912C213.976 38.7467 212.994 40.432 211.629 41.968C211.544 42.0533 211.416 42.096 211.245 42.096C210.946 42.096 210.626 41.9467 210.285 41.648C209.944 41.3493 209.773 41.0507 209.773 40.752C209.773 40.4533 209.73 39.7707 209.645 38.704C209.602 37.5947 209.538 36.3787 209.453 35.056C209.368 33.6907 209.282 32.3253 209.197 30.96C209.154 29.552 209.133 28.4 209.133 27.504C209.133 27.0773 209.154 26.5227 209.197 25.84C209.24 25.1147 209.368 24.496 209.581 23.984C209.624 23.8987 209.773 23.728 210.029 23.472C210.328 23.216 210.648 23.088 210.989 23.088C211.288 23.088 211.458 23.28 211.501 23.664C211.544 24.048 211.565 24.4747 211.565 24.944V35.056C211.565 35.2693 211.586 35.568 211.629 35.952C211.714 36.336 211.821 36.6133 211.949 36.784C212.418 35.76 212.845 34.5653 213.229 33.2C213.656 31.792 214.061 30.4693 214.445 29.232C214.829 27.952 215.213 26.8853 215.597 26.032C215.981 25.136 216.365 24.688 216.749 24.688C217.176 24.688 217.517 24.7733 217.773 24.944C218.029 25.1147 218.242 25.456 218.413 25.968C218.626 27.2053 218.797 28.3147 218.925 29.296C219.053 30.2347 219.202 31.088 219.373 31.856C219.586 32.624 219.864 33.3493 220.205 34.032C220.589 34.672 221.101 35.2693 221.741 35.824C222.338 36.3787 223 36.784 223.725 37.04C224.493 37.296 225.154 37.424 225.709 37.424C225.965 37.424 226.242 37.3813 226.541 37.296C226.84 37.168 227.053 37.104 227.181 37.104C227.352 37.104 227.501 37.2533 227.629 37.552C227.8 37.8507 227.885 38.0427 227.885 38.128ZM242.641 32.176C242.641 33.1147 242.513 34.0107 242.257 34.864C242.001 35.7173 241.66 36.464 241.233 37.104C240.806 37.744 240.294 38.256 239.697 38.64C239.142 38.9813 238.524 39.152 237.841 39.152C236.646 39.152 235.708 38.8107 235.025 38.128C234.342 37.4453 233.809 36.656 233.425 35.76C233.084 34.864 232.849 33.968 232.721 33.072C232.636 32.1333 232.593 31.4293 232.593 30.96C232.593 30.192 232.7 29.3387 232.913 28.4C233.169 27.4187 233.489 26.5227 233.873 25.712C234.3 24.9013 234.769 24.2187 235.281 23.664C235.793 23.1093 236.326 22.832 236.881 22.832C237.009 22.832 237.201 22.8747 237.457 22.96C237.756 23.0453 238.054 23.1733 238.353 23.344C238.652 23.5147 238.908 23.728 239.121 23.984C239.377 24.24 239.548 24.5387 239.633 24.88C240.102 24.9227 240.572 25.0933 241.041 25.392C241.51 25.6907 241.766 25.9253 241.809 26.096C242.15 27.2053 242.364 28.3147 242.449 29.424C242.577 30.5333 242.641 31.4507 242.641 32.176ZM239.761 31.024C239.761 30.384 239.697 29.7227 239.569 29.04C239.441 28.3147 239.185 27.5893 238.801 26.864C238.716 26.9067 238.609 26.928 238.481 26.928C238.31 26.928 238.161 26.9067 238.033 26.864C237.948 26.8213 237.862 26.8 237.777 26.8C237.265 26.8 236.86 26.9493 236.561 27.248C236.262 27.504 236.028 27.8667 235.857 28.336C235.729 28.7627 235.644 29.232 235.601 29.744C235.558 30.256 235.537 30.7467 235.537 31.216C235.537 31.6853 235.558 32.2187 235.601 32.816C235.644 33.3707 235.729 33.904 235.857 34.416C236.028 34.928 236.241 35.376 236.497 35.76C236.753 36.1013 237.094 36.272 237.521 36.272C237.948 36.272 238.31 36.0587 238.609 35.632C238.908 35.1627 239.142 34.6293 239.313 34.032C239.484 33.4347 239.59 32.8587 239.633 32.304C239.718 31.7067 239.761 31.28 239.761 31.024ZM257.635 44.144C257.635 44.4853 257.507 44.7413 257.251 44.912C256.995 45.0827 256.696 45.168 256.355 45.168C255.971 45.168 255.565 44.8053 255.139 44.08C254.755 43.3547 254.371 42.4373 253.987 41.328C253.603 40.2187 253.24 39.024 252.899 37.744C252.557 36.4213 252.259 35.2053 252.003 34.096C251.747 32.944 251.533 31.984 251.363 31.216C251.235 30.448 251.171 30.0213 251.171 29.936C251.171 29.7653 251.085 29.3173 250.915 28.592C250.787 27.8667 250.595 26.736 250.339 25.2C250.125 23.664 249.869 21.68 249.571 19.248C249.315 16.7733 249.037 13.7227 248.739 10.096C248.739 9.712 248.803 9.22133 248.931 8.624C249.059 8.02666 249.357 7.728 249.827 7.728C250.424 7.728 250.872 8.13333 251.171 8.944C251.512 9.75467 251.768 10.7573 251.939 11.952C252.152 13.1467 252.301 14.4053 252.387 15.728C252.472 17.008 252.579 18.1387 252.707 19.12C252.877 20.4853 253.027 21.7227 253.155 22.832C253.325 23.9413 253.475 25.0507 253.603 26.16C253.773 27.2267 253.965 28.3573 254.179 29.552C254.435 30.7467 254.733 32.0693 255.075 33.52L257.635 44.144ZM280.735 35.696C280.735 35.9093 280.628 36.1227 280.415 36.336C280.244 36.5067 280.137 36.6987 280.095 36.912C280.095 37.3813 280.18 37.8293 280.351 38.256C280.564 38.6827 280.671 39.1947 280.671 39.792C280.671 40.3467 280.5 40.624 280.159 40.624C279.732 40.624 279.412 40.688 279.199 40.816C279.028 40.9013 278.708 40.9867 278.239 41.072C277.983 41.072 277.705 40.8373 277.407 40.368C277.236 40.1547 277.087 39.8987 276.958 39.6C276.958 39.5573 276.831 39.6427 276.575 39.856C276.361 40.0693 275.977 40.3253 275.423 40.624C274.911 40.88 274.185 41.136 273.247 41.392C272.351 41.6053 271.199 41.712 269.791 41.712C268.596 41.712 267.551 41.456 266.655 40.944C265.759 40.3893 265.012 39.6853 264.415 38.832C263.86 37.9787 263.433 37.0187 263.135 35.952C262.879 34.8427 262.751 33.7333 262.751 32.624C262.751 31.6 262.857 30.64 263.071 29.744C263.327 28.8053 263.668 27.9947 264.095 27.312C264.521 26.5867 265.055 26.0107 265.695 25.584C266.335 25.1573 267.081 24.944 267.935 24.944C268.745 24.944 269.556 25.2 270.367 25.712C271.177 26.224 271.903 26.7787 272.543 27.376C273.183 27.9733 273.695 28.528 274.079 29.04C274.505 29.5093 274.719 29.744 274.719 29.744C274.121 26.416 273.588 23.408 273.119 20.72C272.905 19.568 272.692 18.4373 272.479 17.328C272.308 16.176 272.137 15.152 271.967 14.256C271.796 13.36 271.647 12.6133 271.519 12.016C271.433 11.376 271.391 10.992 271.391 10.864C271.348 10.608 271.305 10.16 271.263 9.52C271.22 8.83733 271.177 8.13333 271.135 7.408C271.092 6.68267 271.049 6.02133 271.007 5.424C270.964 4.82667 270.921 4.44267 270.879 4.272C270.751 3.84533 270.58 3.312 270.367 2.672C270.196 2.032 270.111 1.66933 270.111 1.584C270.111 1.37066 270.217 1.11466 270.431 0.815998C270.644 0.474664 270.921 0.303997 271.263 0.303997C271.519 0.303997 271.753 0.32533 271.967 0.367996C272.18 0.410665 272.372 0.538666 272.543 0.751999C272.713 0.965332 272.863 1.30666 272.991 1.776C273.161 2.20266 273.311 2.82133 273.439 3.632C273.481 4.05866 273.609 4.86933 273.823 6.064C274.036 7.25867 274.249 8.56 274.463 9.968C274.676 11.376 274.889 12.72 275.103 14C275.316 15.28 275.465 16.2187 275.551 16.816C275.764 18.4373 276.041 20.208 276.383 22.128C276.767 24.0053 277.15 25.8187 277.535 27.568C277.919 29.3173 278.303 30.8747 278.687 32.24C279.071 33.5627 279.412 34.4587 279.711 34.928C279.796 35.0987 279.967 35.2267 280.223 35.312C280.479 35.3547 280.649 35.4827 280.735 35.696ZM275.999 36.976C275.956 36.848 275.679 36.3147 275.167 35.376C274.697 34.3947 274.079 33.3493 273.311 32.24C272.585 31.088 271.753 30.064 270.815 29.168C269.919 28.272 269.044 27.824 268.191 27.824C267.465 27.824 266.868 28.3787 266.399 29.488C265.972 30.5973 265.759 31.8773 265.759 33.328C265.759 34.9493 266.228 36.2507 267.167 37.232C268.148 38.2133 269.236 38.704 270.431 38.704C271.455 38.704 272.521 38.5333 273.631 38.192C274.74 37.8507 275.529 37.4453 275.999 36.976ZM300.085 37.552C300.085 38.2773 299.829 38.9173 299.317 39.472C298.848 39.984 298.229 40.432 297.461 40.816C296.736 41.1573 295.925 41.4347 295.029 41.648C294.133 41.8613 293.28 42.032 292.469 42.16C291.658 42.2453 290.933 42.3093 290.293 42.352C289.696 42.352 289.312 42.352 289.141 42.352C288.202 42.352 287.477 42.2027 286.965 41.904C286.453 41.6053 286.197 41.072 286.197 40.304C286.197 40.048 286.218 39.8347 286.261 39.664C286.304 39.4507 286.474 39.344 286.773 39.344C286.901 39.344 287.114 39.3867 287.413 39.472C287.712 39.5147 287.946 39.536 288.117 39.536C288.288 39.536 288.821 39.5147 289.717 39.472C290.656 39.3867 291.637 39.2587 292.661 39.088C293.728 38.9173 294.666 38.6827 295.477 38.384C296.33 38.0427 296.757 37.616 296.757 37.104C296.757 37.0187 296.309 36.7627 295.413 36.336C294.56 35.8667 293.258 35.0987 291.509 34.032C290.144 33.1787 289.184 32.3253 288.629 31.472C288.074 30.576 287.797 29.3813 287.797 27.888C287.797 26.9493 287.989 26.1813 288.373 25.584C288.8 24.9867 289.354 24.5173 290.037 24.176C290.762 23.8347 291.573 23.6 292.469 23.472C293.408 23.3013 294.389 23.216 295.413 23.216C295.498 23.216 295.754 23.2587 296.181 23.344C296.65 23.4293 297.141 23.5787 297.653 23.792C298.165 23.9627 298.613 24.1973 298.997 24.496C299.424 24.752 299.637 25.0507 299.637 25.392C299.637 25.4773 299.552 25.6053 299.381 25.776C299.253 25.9467 299.018 26.2667 298.677 26.736C298.549 26.6933 298.314 26.6293 297.973 26.544C297.674 26.4587 297.312 26.3733 296.885 26.288C296.501 26.16 296.096 26.0747 295.669 26.032C295.242 25.9467 294.901 25.904 294.645 25.904C293.536 25.904 292.64 26.1173 291.957 26.544C291.274 26.928 290.933 27.696 290.933 28.848C290.933 29.4027 291.146 29.9147 291.573 30.384C292.042 30.8533 292.618 31.3013 293.301 31.728C293.984 32.112 294.709 32.5173 295.477 32.944C296.288 33.328 297.034 33.7547 297.717 34.224C298.4 34.6933 298.954 35.2053 299.381 35.76C299.85 36.272 300.085 36.8693 300.085 37.552Z" fill="#E8E8E8"/>
<path d="M2 52.4H303.029V55.6H2V52.4Z" fill="#E8E8E8"/>
</g>
<defs>
<filter id="filter0_d_40:67" x="0.112" y="0.304016" width="303.973" height="65.472" filterUnits="userSpaceOnUse" color-interpolation-filters="sRGB">
<feFlood flood-opacity="0" result="BackgroundImageFix"/>
<feColorMatrix in="SourceAlpha" type="matrix" values="0 0 0 0 0 0 0 0 0 0 0 0 0 0 0 0 0 0 127 0" result="hardAlpha"/>
<feOffset dy="4"/>
<feGaussianBlur stdDeviation="2"/>
<feComposite in2="hardAlpha" operator="out"/>
<feColorMatrix type="matrix" values="0 0 0 0 0 0 0 0 0 0 0 0 0 0 0 0 0 0 0.25 0"/>
<feBlend mode="normal" in2="BackgroundImageFix" result="effect1_dropShadow_40:67"/>
<feBlend mode="normal" in="SourceGraphic" in2="effect1_dropShadow_40:67" result="shape"/>
</filter>
</defs>
</svg>
